<svg width="603" height="275" viewBox="0 0 603 275" fill="none" xmlns="http://www.w3.org/2000/svg">
<line x1="121" y1="5" x2="301" y2="5.00002" stroke="white" stroke-width="10" stroke-linecap="round"/>
<line x1="301" y1="5" x2="301" y2="61" stroke="white" stroke-width="10" stroke-linecap="round"/>
<line x1="301" y1="107" x2="301" y2="153" stroke="white" stroke-width="10" stroke-linecap="round"/>
<line x1="596" y1="146" x2="596" y2="199" stroke="white" stroke-width="10" stroke-linecap="round" stroke-linejoin="round"/>
<line x1="355" y1="15" x2="355" y2="153" stroke="white" stroke-width="10" stroke-linecap="round"/>
<line x1="64" y1="61" x2="64" y2="107" stroke="white" stroke-width="10" stroke-linecap="round"/>
<line x1="7" y1="153" x2="7" y2="198" stroke="white" stroke-width="10" stroke-linecap="round"/>
<line x1="301" y1="61" x2="64" y2="61" stroke="white" stroke-width="10" stroke-linecap="round"/>
<line x1="301" y1="107" x2="64" y2="107" stroke="white" stroke-width="10" stroke-linecap="round"/>
<line x1="301" y1="153" x2="7" y2="153" stroke="white" stroke-width="10" stroke-linecap="round"/>
<line x1="595" y1="199" x2="7" y2="199" stroke="white" stroke-width="10" stroke-linecap="round"/>
<path fill-rule="evenodd" clip-rule="evenodd" d="M508.571 131H519.094C497.171 61.4823 432.108 10.8726 355 10.0112V20.0118C426.565 20.8592 487.026 67.1218 508.571 131Z" fill="white"/>
<line x1="513.026" y1="126.3" x2="595.3" y2="145.974" stroke="white" stroke-width="10" stroke-linecap="round"/>
<path d="M15.8 254.6C12.4 254.6 9.46667 253.7 7 251.9C4.56667 250.067 2.81667 247.55 1.75 244.35L8.55 241.8C9.35 243.5 10.4 244.867 11.7 245.9C13 246.9 14.4333 247.4 16 247.4C17.6333 247.4 18.9167 247.1 19.85 246.5C20.7833 245.867 21.25 244.967 21.25 243.8C21.25 243.033 20.9 242.35 20.2 241.75C19.5333 241.15 18.8167 240.717 18.05 240.45C17.3167 240.15 16.1667 239.75 14.6 239.25C13.5667 238.917 12.7833 238.667 12.25 238.5C11.75 238.3 11.0167 238 10.05 237.6C9.08333 237.2 8.35 236.833 7.85 236.5C7.35 236.167 6.75 235.717 6.05 235.15C5.35 234.583 4.81667 234 4.45 233.4C4.11667 232.767 3.81667 232.017 3.55 231.15C3.28333 230.25 3.15 229.3 3.15 228.3C3.15 225.5 4.25 223.15 6.45 221.25C8.65 219.35 11.6333 218.4 15.4 218.4C18.5333 218.4 21.1667 219.217 23.3 220.85C25.4333 222.483 26.85 224.583 27.55 227.15L20.75 229.35C19.65 226.85 17.7333 225.6 15 225.6C12.1667 225.6 10.75 226.55 10.75 228.45C10.75 228.883 10.8833 229.267 11.15 229.6C11.4167 229.933 11.9 230.267 12.6 230.6C13.3 230.933 13.8667 231.183 14.3 231.35C14.7667 231.517 15.5667 231.8 16.7 232.2C17.9 232.6 18.8167 232.917 19.45 233.15C20.1167 233.383 21.0167 233.75 22.15 234.25C23.2833 234.717 24.1667 235.233 24.8 235.8C25.4667 236.333 26.15 236.983 26.85 237.75C27.55 238.517 28.05 239.417 28.35 240.45C28.6833 241.483 28.85 242.617 28.85 243.85C28.85 247.15 27.6167 249.767 25.15 251.7C22.6833 253.633 19.5667 254.6 15.8 254.6ZM51.8047 219H68.3047C72.3047 219 75.2214 219.917 77.0547 221.75C78.9214 223.55 79.8547 225.8 79.8547 228.5C79.8547 232.1 78.538 234.517 75.9047 235.75C77.6047 236.383 78.8714 237.433 79.7047 238.9C80.5714 240.367 81.0047 241.9 81.0047 243.5C81.0047 246.4 80.0214 248.883 78.0547 250.95C76.088 252.983 73.0547 254 68.9547 254H51.8047V219ZM67.5547 232.65C70.588 232.65 72.1047 231.55 72.1047 229.35C72.1047 227.183 70.8547 226.1 68.3547 226.1H59.4047V232.65H67.5547ZM69.3047 246.85C70.7047 246.85 71.7214 246.5 72.3547 245.8C72.988 245.1 73.3047 244.283 73.3047 243.35C73.3047 240.783 71.5214 239.5 67.9547 239.5H59.4047V246.85H69.3047ZM104.455 254V219H112.055V254H104.455ZM183.195 226.3V254H175.595V226.3H165.545V219H193.245V226.3H183.195ZM215.459 254V219H232.509C236.709 219 239.742 220.05 241.609 222.15C243.509 224.25 244.459 226.967 244.459 230.3C244.459 232.367 243.892 234.383 242.759 236.35C241.626 238.317 240.076 239.7 238.109 240.5L244.659 254H236.159L229.809 241.65H223.059V254H215.459ZM223.059 234.45H232.609C235.242 234.45 236.559 233.067 236.559 230.3C236.559 229.133 236.242 228.167 235.609 227.4C235.009 226.6 234.009 226.2 232.609 226.2H223.059V234.45ZM291.026 254L288.426 247.2H275.276L272.676 254H264.376L278.176 219H285.476L299.326 254H291.026ZM285.876 240.2L282.876 232.65C282.409 231.517 282.059 230.533 281.826 229.7C281.692 230.267 281.342 231.25 280.776 232.65L277.776 240.2H285.876ZM349.497 254H342.847L329.647 235.45C329.314 235.017 328.814 234.133 328.147 232.8C328.247 233.367 328.297 234.25 328.297 235.45V254H320.797V219H327.747L340.597 237.35C341.23 238.25 341.714 239.117 342.047 239.95C341.947 239.25 341.897 238.367 341.897 237.3V219H349.497V254ZM385.98 254.6C382.58 254.6 379.646 253.7 377.18 251.9C374.746 250.067 372.996 247.55 371.93 244.35L378.73 241.8C379.53 243.5 380.58 244.867 381.88 245.9C383.18 246.9 384.613 247.4 386.18 247.4C387.813 247.4 389.096 247.1 390.03 246.5C390.963 245.867 391.43 244.967 391.43 243.8C391.43 243.033 391.08 242.35 390.38 241.75C389.713 241.15 388.996 240.717 388.23 240.45C387.496 240.15 386.346 239.75 384.78 239.25C383.746 238.917 382.963 238.667 382.43 238.5C381.93 238.3 381.196 238 380.23 237.6C379.263 237.2 378.53 236.833 378.03 236.5C377.53 236.167 376.93 235.717 376.23 235.15C375.53 234.583 374.996 234 374.63 233.4C374.296 232.767 373.996 232.017 373.73 231.15C373.463 230.25 373.33 229.3 373.33 228.3C373.33 225.5 374.43 223.15 376.63 221.25C378.83 219.35 381.813 218.4 385.58 218.4C388.713 218.4 391.346 219.217 393.48 220.85C395.613 222.483 397.03 224.583 397.73 227.15L390.93 229.35C389.83 226.85 387.913 225.6 385.18 225.6C382.346 225.6 380.93 226.55 380.93 228.45C380.93 228.883 381.063 229.267 381.33 229.6C381.596 229.933 382.08 230.267 382.78 230.6C383.48 230.933 384.046 231.183 384.48 231.35C384.946 231.517 385.746 231.8 386.88 232.2C388.08 232.6 388.996 232.917 389.63 233.15C390.296 233.383 391.196 233.75 392.33 234.25C393.463 234.717 394.346 235.233 394.98 235.8C395.646 236.333 396.33 236.983 397.03 237.75C397.73 238.517 398.23 239.417 398.53 240.45C398.863 241.483 399.03 242.617 399.03 243.85C399.03 247.15 397.796 249.767 395.33 251.7C392.863 253.633 389.746 254.6 385.98 254.6ZM421.984 254V219H437.484C441.651 219 444.718 220.083 446.684 222.25C448.684 224.417 449.684 227.083 449.684 230.25C449.684 231.617 449.451 232.95 448.984 234.25C448.518 235.517 447.818 236.7 446.884 237.8C445.951 238.9 444.668 239.783 443.034 240.45C441.401 241.117 439.551 241.45 437.484 241.45H429.584V254H421.984ZM437.784 234.3C439.118 234.3 440.118 233.9 440.784 233.1C441.451 232.3 441.784 231.35 441.784 230.25C441.784 229.183 441.468 228.25 440.834 227.45C440.201 226.617 439.184 226.2 437.784 226.2H429.584V234.3H437.784ZM484.876 254.6C482.676 254.6 480.676 254.25 478.876 253.55C477.11 252.85 475.643 251.917 474.476 250.75C473.31 249.55 472.326 248.167 471.526 246.6C470.76 245.033 470.193 243.417 469.826 241.75C469.493 240.05 469.326 238.3 469.326 236.5C469.326 234.7 469.493 232.967 469.826 231.3C470.193 229.6 470.76 227.967 471.526 226.4C472.326 224.833 473.31 223.467 474.476 222.3C475.643 221.1 477.11 220.15 478.876 219.45C480.676 218.75 482.676 218.4 484.876 218.4C487.576 218.4 489.96 218.933 492.026 220C494.093 221.033 495.71 222.45 496.876 224.25C498.043 226.017 498.91 227.933 499.476 230C500.076 232.067 500.376 234.233 500.376 236.5C500.376 238.767 500.076 240.933 499.476 243C498.91 245.067 498.043 247 496.876 248.8C495.71 250.567 494.093 251.983 492.026 253.05C489.96 254.083 487.576 254.6 484.876 254.6ZM484.876 247.25C486.61 247.25 488.076 246.667 489.276 245.5C490.476 244.3 491.31 242.933 491.776 241.4C492.243 239.833 492.476 238.2 492.476 236.5C492.476 234.7 492.26 233.033 491.826 231.5C491.393 229.933 490.576 228.583 489.376 227.45C488.176 226.283 486.676 225.7 484.876 225.7C483.076 225.7 481.56 226.3 480.326 227.5C479.126 228.667 478.31 230.033 477.876 231.6C477.443 233.133 477.226 234.767 477.226 236.5C477.226 237.8 477.36 239.05 477.626 240.25C477.893 241.45 478.31 242.6 478.876 243.7C479.443 244.767 480.243 245.633 481.276 246.3C482.31 246.933 483.51 247.25 484.876 247.25ZM523.563 254V219H540.613C544.813 219 547.846 220.05 549.713 222.15C551.613 224.25 552.563 226.967 552.563 230.3C552.563 232.367 551.996 234.383 550.863 236.35C549.729 238.317 548.179 239.7 546.212 240.5L552.763 254H544.263L537.913 241.65H531.163V254H523.563ZM531.163 234.45H540.713C543.346 234.45 544.663 233.067 544.663 230.3C544.663 229.133 544.346 228.167 543.713 227.4C543.113 226.6 542.113 226.2 540.713 226.2H531.163V234.45ZM590.875 226.3V254H583.275V226.3H573.225V219H600.925V226.3H590.875Z" fill="white"/>
</svg>
